# xmcd
#
# Track frame offsets:
#	150
#	17253
#	32011
#	52098
#	66026
#	80683
#	97081
#	113939
#	125599
#	135757
#	158410
#	183116
#
# Disc length: 2822 seconds
#
# Revision: 0
# Processed by: cddbd v1.5.2PL0 Copyright (c) Steve Scherf et al.
# Submitted via: dBpowerAMP V4.0
#
DISCID=900b040c
DTITLE=Big Harp - White Hat
DYEAR=1900
DGENRE=Country
TTITLE0=Nadine
TTITLE1=Everybody Pays
TTITLE2=Goodbye Crazy City
TTITLE3=Steady Hand Behind the Wheel
TTITLE4=All Bets Are Off
TTITLE5=Some Old World I used To Know
TTITLE6=Here's Hoping
TTITLE7=Let Me Lend My Shoulder
TTITLE8=White Hat
TTITLE9=Out in the Filed
TTITLE10=Oh Nadine
TTITLE11=DATA
EXTD=
EXTT0=
EXTT1=
EXTT2=
EXTT3=
EXTT4=
EXTT5=
EXTT6=
EXTT7=
EXTT8=
EXTT9=
EXTT10=
EXTT11=
PLAYORDER=
